<svg width="32" height="32" viewBox="0 0 32 32" fill="none" xmlns="http://www.w3.org/2000/svg">
<g clip-path="url(#clip0_11404_87472)">
<path d="M0 7.69099C0 3.44338 3.44338 0 7.69099 0H24.309C28.5566 0 32 3.44338 32 7.69099V24.309C32 28.5566 28.5566 32 24.309 32H7.69099C3.44338 32 0 28.5566 0 24.309V7.69099Z" fill="#FF00DD"/>
<path d="M24.3355 25.1538C24.3355 25.5772 23.9925 25.9204 23.569 25.9204H17.2792C16.8559 25.9204 16.5127 25.5772 16.5127 25.1539V18.2934C16.5127 17.6158 17.3277 17.2715 17.8136 17.7438L24.1033 23.8589C24.2517 24.0031 24.3355 24.2013 24.3355 24.4084V25.1538Z" fill="white"/>
<path d="M16.5127 13.139C16.5127 13.3493 16.5992 13.5504 16.7518 13.6952L23.0415 19.6595C23.53 20.1228 24.3354 19.7766 24.3354 19.1035V6.78557C24.3354 6.10791 23.5206 5.76365 23.0347 6.23602L16.7449 12.3511C16.5965 12.4954 16.5127 12.6936 16.5127 12.9006V13.139Z" fill="white"/>
<path d="M7.69141 6.56285C7.69138 6.19969 8.02738 5.90527 8.44187 5.90527H13.8079C14.2224 5.90527 14.5584 6.19966 14.5584 6.5628V22.2765C14.5584 22.8529 13.772 23.1504 13.2932 22.755L7.92818 18.3248C7.77772 18.2005 7.69244 18.0275 7.69242 17.8463L7.69141 6.56285Z" fill="white"/>
</g>
<defs>
<clipPath id="clip0_11404_87472">
<rect width="32" height="32" fill="white"/>
</clipPath>
</defs>
</svg>
