<svg width="41" height="42" viewBox="0 0 41 42" fill="none" xmlns="http://www.w3.org/2000/svg">
<path d="M35.6828 34.5909C38.5033 31.1308 40.1953 26.7145 40.1953 21.9023C40.1953 10.8027 31.1973 1.80469 20.0977 1.80469C8.99801 1.80469 0 10.8027 0 21.9023C0 26.7145 1.69206 31.1308 4.51254 34.5909H35.6828Z" fill="#FF00DD"/>
<path d="M35.6836 3.44531V34.5909C31.9988 39.1125 26.3854 42 20.0977 42C16.7705 42 13.6328 41.192 10.8691 39.7605C8.40984 38.4874 6.24668 36.7205 4.51172 34.5909V3.44531C4.51172 2.53887 5.2459 1.80469 6.15234 1.80469H34.043C34.9494 1.80469 35.6836 2.53887 35.6836 3.44531Z" fill="#DEEEFF"/>
<path d="M10.8691 1.80469V39.7605C8.40984 38.4874 6.24668 36.7205 4.51172 34.5909V3.44531C4.51172 2.53887 5.2459 1.80469 6.15234 1.80469H10.8691Z" fill="#D3DCFB"/>
<path d="M27.6855 11.2793H17.0215C16.6817 11.2793 16.4062 11.0039 16.4062 10.6641C16.4062 10.3242 16.6817 10.0488 17.0215 10.0488H27.6855C28.0253 10.0488 28.3008 10.3242 28.3008 10.6641C28.3008 11.0039 28.0253 11.2793 27.6855 11.2793Z" fill="#BEC8F7"/>
<path d="M32.4023 14.5605H17.0215C16.6817 14.5605 16.4062 14.2852 16.4062 13.9453C16.4062 13.6055 16.6817 13.3301 17.0215 13.3301H32.4023C32.7421 13.3301 33.0176 13.6055 33.0176 13.9453C33.0176 14.2852 32.7421 14.5605 32.4023 14.5605Z" fill="#BEC8F7"/>
<path d="M12.5098 15.3809H9.22852C8.437 15.3809 7.79297 14.7368 7.79297 13.9453V10.6641C7.79297 9.87254 8.437 9.22852 9.22852 9.22852H12.5098C13.3013 9.22852 13.9453 9.87254 13.9453 10.6641V13.9453C13.9453 14.7368 13.3013 15.3809 12.5098 15.3809ZM9.22852 10.459C9.11548 10.459 9.02344 10.5509 9.02344 10.6641V13.9453C9.02344 14.0584 9.11548 14.1504 9.22852 14.1504H12.5098C12.6228 14.1504 12.7148 14.0584 12.7148 13.9453V10.6641C12.7148 10.5509 12.6228 10.459 12.5098 10.459H9.22852Z" fill="#BEC8F7"/>
<path d="M27.6855 19.4824H17.0215C16.6817 19.4824 16.4062 19.207 16.4062 18.8672C16.4062 18.5273 16.6817 18.252 17.0215 18.252H27.6855C28.0253 18.252 28.3008 18.5273 28.3008 18.8672C28.3008 19.207 28.0253 19.4824 27.6855 19.4824Z" fill="#BEC8F7"/>
<path d="M32.4023 22.7637H17.0215C16.6817 22.7637 16.4062 22.4883 16.4062 22.1484C16.4062 21.8086 16.6817 21.5332 17.0215 21.5332H32.4023C32.7421 21.5332 33.0176 21.8086 33.0176 22.1484C33.0176 22.4883 32.7421 22.7637 32.4023 22.7637Z" fill="#BEC8F7"/>
<path d="M12.5098 23.584H9.22852C8.437 23.584 7.79297 22.94 7.79297 22.1484V18.8672C7.79297 18.0757 8.437 17.4316 9.22852 17.4316H12.5098C13.3013 17.4316 13.9453 18.0757 13.9453 18.8672V22.1484C13.9453 22.94 13.3013 23.584 12.5098 23.584ZM9.22852 18.6621C9.11548 18.6621 9.02344 18.7541 9.02344 18.8672V22.1484C9.02344 22.2616 9.11548 22.3535 9.22852 22.3535H12.5098C12.6228 22.3535 12.7148 22.2616 12.7148 22.1484V18.8672C12.7148 18.7541 12.6228 18.6621 12.5098 18.6621H9.22852Z" fill="#BEC8F7"/>
<path d="M27.6855 27.6855H17.0215C16.6817 27.6855 16.4062 27.4102 16.4062 27.0703C16.4062 26.7305 16.6817 26.4551 17.0215 26.4551H27.6855C28.0253 26.4551 28.3008 26.7305 28.3008 27.0703C28.3008 27.4102 28.0253 27.6855 27.6855 27.6855Z" fill="#BEC8F7"/>
<path d="M32.4023 30.9668H17.0215C16.6817 30.9668 16.4062 30.6914 16.4062 30.3516C16.4062 30.0117 16.6817 29.7363 17.0215 29.7363H32.4023C32.7421 29.7363 33.0176 30.0117 33.0176 30.3516C33.0176 30.6914 32.7421 30.9668 32.4023 30.9668Z" fill="#BEC8F7"/>
<path d="M12.5098 31.7871H9.22852C8.437 31.7871 7.79297 31.1431 7.79297 30.3516V27.0703C7.79297 26.2788 8.437 25.6348 9.22852 25.6348H12.5098C13.3013 25.6348 13.9453 26.2788 13.9453 27.0703V30.3516C13.9453 31.1431 13.3013 31.7871 12.5098 31.7871ZM9.22852 26.8652C9.11548 26.8652 9.02344 26.9572 9.02344 27.0703V30.3516C9.02344 30.4647 9.11548 30.5566 9.22852 30.5566H12.5098C12.6228 30.5566 12.7148 30.4647 12.7148 30.3516V27.0703C12.7148 26.9572 12.6228 26.8652 12.5098 26.8652H9.22852Z" fill="#BEC8F7"/>
<path d="M27.6855 35.8887H17.0215C16.6817 35.8887 16.4062 35.6133 16.4062 35.2734C16.4062 34.9336 16.6817 34.6582 17.0215 34.6582H27.6855C28.0253 34.6582 28.3008 34.9336 28.3008 35.2734C28.3008 35.6133 28.0253 35.8887 27.6855 35.8887Z" fill="#BEC8F7"/>
<path d="M32.2109 37.9395H17.0215C16.6817 37.9395 16.4062 38.2148 16.4062 38.5547C16.4062 38.8945 16.6817 39.1699 17.0215 39.1699H30.3845C31.0166 38.7926 31.6262 38.3818 32.2109 37.9395Z" fill="#BEC8F7"/>
<path d="M12.5098 33.8379H9.22852C8.437 33.8379 7.79297 34.4819 7.79297 35.2734V37.7927C8.8871 38.6412 10.0709 39.3795 11.3283 39.9902H12.5098C13.3013 39.9902 13.9453 39.3462 13.9453 38.5547V35.2734C13.9453 34.4819 13.3013 33.8379 12.5098 33.8379ZM12.7148 38.5547C12.7148 38.6678 12.6228 38.7598 12.5098 38.7598H9.22852C9.11548 38.7598 9.02344 38.6678 9.02344 38.5547V35.2734C9.02344 35.1603 9.11548 35.0684 9.22852 35.0684H12.5098C12.6228 35.0684 12.7148 35.1603 12.7148 35.2734V38.5547Z" fill="#BEC8F7"/>
<path d="M26.156 24.7024L39.4627 11.3957C40.4191 10.4392 40.4487 8.88123 39.5004 7.91654C39.4876 7.9035 39.4746 7.89054 39.4616 7.87774C38.4969 6.92954 36.9389 6.95899 35.9824 7.91547L22.6758 21.2221L26.156 24.7024Z" fill="#FFDD40"/>
<path d="M28.5421 15.3555L22.6758 21.2218L26.156 24.702L32.0222 18.8359C31.0611 19.7966 29.5032 19.7966 28.5422 18.8356C27.5812 17.8746 27.5812 16.3165 28.5421 15.3555Z" fill="#FFC839"/>
<path d="M39.9808 8.55657C39.7026 8.07521 39.3022 7.67465 38.8208 7.39648L23.835 22.3823L24.995 23.5424L39.9808 8.55657Z" fill="#FFC839"/>
<path d="M28.5413 18.8357C28.3379 18.6323 28.178 18.4019 28.0607 18.1562L23.835 22.382L24.995 23.5421L29.2208 19.3163C28.9751 19.199 28.7448 19.0392 28.5413 18.8357Z" fill="#FFB332"/>
<path d="M26.1556 24.7026L20.8797 27.4285C20.3628 27.6956 19.8036 27.1506 20.0572 26.627L22.6753 21.2223C24.6813 21.0028 26.3751 22.6965 26.1556 24.7026Z" fill="#FBB989"/>
<path d="M20.8797 27.4283L23.3212 26.1669C23.1737 25.1424 22.3897 24.3259 21.3721 24.1367L21.2724 24.1182L20.0572 26.6268C19.8036 27.1505 20.3627 27.6954 20.8797 27.4283Z" fill="#3E3E3E"/>
<path d="M10.8691 0C11.7753 0 12.5098 0.734508 12.5098 1.64062V4.92188C12.5098 5.82799 11.7753 6.5625 10.8691 6.5625C9.96302 6.5625 9.22852 5.82799 9.22852 4.92188V1.64062C9.22852 0.734508 9.96302 0 10.8691 0Z" fill="#3E3E3E"/>
<path d="M10.8691 3.28125C9.96302 3.28125 9.22852 2.54674 9.22852 1.64062V4.92188C9.22852 5.82799 9.96302 6.5625 10.8691 6.5625C11.7753 6.5625 12.5098 5.82799 12.5098 4.92188V1.64062C12.5098 2.54674 11.7753 3.28125 10.8691 3.28125Z" fill="#3E3E3E"/>
<path d="M17.0215 0C17.9276 0 18.6621 0.734508 18.6621 1.64062V4.92188C18.6621 5.82799 17.9276 6.5625 17.0215 6.5625C16.1154 6.5625 15.3809 5.82799 15.3809 4.92188V1.64062C15.3809 0.734508 16.1154 0 17.0215 0Z" fill="#3E3E3E"/>
<path d="M17.0215 3.28125C16.1154 3.28125 15.3809 2.54674 15.3809 1.64062V4.92188C15.3809 5.82799 16.1154 6.5625 17.0215 6.5625C17.9276 6.5625 18.6621 5.82799 18.6621 4.92188V1.64062C18.6621 2.54674 17.9276 3.28125 17.0215 3.28125Z" fill="#3E3E3E"/>
<path d="M23.1738 0C24.0799 0 24.8145 0.734508 24.8145 1.64062V4.92188C24.8145 5.82799 24.0799 6.5625 23.1738 6.5625C22.2677 6.5625 21.5332 5.82799 21.5332 4.92188V1.64062C21.5332 0.734508 22.2677 0 23.1738 0Z" fill="#3E3E3E"/>
<path d="M29.3262 0C30.2323 0 30.9668 0.734508 30.9668 1.64062V4.92188C30.9668 5.82799 30.2323 6.5625 29.3262 6.5625C28.4201 6.5625 27.6855 5.82799 27.6855 4.92188V1.64062C27.6855 0.734508 28.4201 0 29.3262 0Z" fill="#3E3E3E"/>
<path d="M11.3135 13.7057C11.1503 13.7057 10.9938 13.6409 10.8784 13.5256L9.64798 12.2951C9.40771 12.0547 9.40771 11.6653 9.64798 11.425C9.88825 11.1848 10.2778 11.1848 10.518 11.425L11.3135 12.2204L13.715 9.81881C13.9553 9.57863 14.3448 9.57863 14.585 9.81881C14.8253 10.0592 14.8253 10.4486 14.585 10.6889L11.7484 13.5256C11.6331 13.6409 11.4767 13.7057 11.3135 13.7057Z" fill="#FF7186"/>
<path d="M11.3135 21.9088C11.1503 21.9088 10.9938 21.844 10.8784 21.7287L9.64798 20.4982C9.40771 20.2579 9.40771 19.8684 9.64798 19.6281C9.88825 19.3879 10.2778 19.3879 10.518 19.6281L11.3135 20.4236L13.715 18.0219C13.9553 17.7818 14.3448 17.7818 14.585 18.0219C14.8253 18.2623 14.8253 18.6518 14.585 18.892L11.7484 21.7287C11.6331 21.844 11.4767 21.9088 11.3135 21.9088Z" fill="#FF7186"/>
<path d="M11.3135 30.1119C11.1503 30.1119 10.9938 30.0471 10.8784 29.9318L9.64798 28.7013C9.40771 28.461 9.40771 28.0715 9.64798 27.8312C9.88825 27.591 10.2778 27.591 10.518 27.8312L11.3135 28.6267L13.715 26.2251C13.9553 25.9849 14.3448 25.9849 14.585 26.2251C14.8253 26.4654 14.8253 26.8549 14.585 27.0952L11.7484 29.9318C11.6331 30.0471 11.4767 30.1119 11.3135 30.1119Z" fill="#FF7186"/>
<path d="M23.1738 3.28125C22.2677 3.28125 21.5332 2.54674 21.5332 1.64062V4.92188C21.5332 5.82799 22.2677 6.5625 23.1738 6.5625C24.0799 6.5625 24.8145 5.82799 24.8145 4.92188V1.64062C24.8145 2.54674 24.0799 3.28125 23.1738 3.28125Z" fill="#3E3E3E"/>
<path d="M29.3262 3.28125C28.4201 3.28125 27.6855 2.54674 27.6855 1.64062V4.92188C27.6855 5.82799 28.4201 6.5625 29.3262 6.5625C30.2323 6.5625 30.9668 5.82799 30.9668 4.92188V1.64062C30.9668 2.54674 30.2323 3.28125 29.3262 3.28125Z" fill="#3E3E3E"/>
</svg>
